M48
; DRILL file KiCad 10.0.3 date 2026-07-14T07:35:01
; FORMAT={-:-/ absolute / metric / decimal}
; #@! TF.CreationDate,2026-07-14T07:35:01-06:00
; #@! TF.GenerationSoftware,Kicad,Pcbnew,10.0.3
; #@! TF.FileFunction,MixedPlating,1,2
FMAT,2
METRIC
; #@! TA.AperFunction,Plated,PTH,ViaDrill
T1C0.300
; #@! TA.AperFunction,Plated,PTH,ViaDrill
T2C0.400
; #@! TA.AperFunction,Plated,PTH,ComponentDrill
T3C0.700
; #@! TA.AperFunction,Plated,PTH,ComponentDrill
T4C0.750
; #@! TA.AperFunction,Plated,PTH,ComponentDrill
T5C0.800
; #@! TA.AperFunction,Plated,PTH,ComponentDrill
T6C0.900
; #@! TA.AperFunction,Plated,PTH,ComponentDrill
T7C1.000
; #@! TA.AperFunction,Plated,PTH,ComponentDrill
T8C1.100
; #@! TA.AperFunction,Plated,PTH,ComponentDrill
T9C1.570
; #@! TA.AperFunction,Plated,PTH,ComponentDrill
T10C1.700
; #@! TA.AperFunction,Plated,PTH,ComponentDrill
T11C2.000
; #@! TA.AperFunction,NonPlated,NPTH,ComponentDrill
T12C2.500
; #@! TA.AperFunction,NonPlated,NPTH,ComponentDrill
T13C3.000
; #@! TA.AperFunction,NonPlated,NPTH,ComponentDrill
T14C3.200
%
G90
G05
T1
X53.97Y-140.206
X81.32Y-74.706
X81.32Y-114.956
X89.57Y-113.806
X89.82Y-72.456
X89.97Y-90.706
X90.57Y-115.206
X93.82Y-59.456
X94.07Y-63.456
X103.07Y-63.706
X112.82Y-81.706
X113.32Y-104.706
X133.57Y-159.551
X134.32Y-154.456
X134.56Y-160.206
X135.32Y-115.706
X135.82Y-160.206
T2
X85.32Y-35.956
T3
X108.03Y-60.706
X110.57Y-60.706
X112.53Y-65.206
X115.07Y-65.206
T4
X50.07Y-130.706
X51.34Y-130.706
X52.61Y-130.706
X65.07Y-33.206
X65.07Y-38.206
X69.07Y-132.706
X69.07Y-137.706
X73.57Y-162.166
X73.57Y-163.436
X73.57Y-164.706
X83.07Y-162.206
X83.07Y-163.476
X83.07Y-164.746
X94.07Y-132.706
X94.07Y-137.706
X99.07Y-132.206
X99.07Y-137.206
X114.07Y-60.206
X115.34Y-60.206
X116.61Y-60.206
X124.8Y-114.566
X124.8Y-122.066
X125.3Y-130.566
X125.3Y-139.566
X126.07Y-114.566
X126.07Y-122.066
X126.57Y-130.566
X126.57Y-139.566
X127.34Y-114.566
X127.34Y-122.066
X127.84Y-130.566
X127.84Y-139.566
T5
X38.57Y-66.206
X38.75Y-58.206
X38.75Y-62.206
X38.91Y-54.206
X39.595Y-128.971
X39.595Y-139.131
X46.07Y-133.206
X46.07Y-143.366
X46.07Y-146.206
X46.07Y-151.206
X48.73Y-66.206
X48.91Y-58.206
X48.91Y-62.206
X49.07Y-54.206
X49.91Y-149.706
X50.07Y-141.206
X50.07Y-146.206
X52.91Y-53.706
X52.91Y-58.706
X52.91Y-61.706
X52.91Y-66.706
X53.07Y-136.206
X58.07Y-136.206
X59.57Y-122.626
X59.57Y-132.786
X60.07Y-149.706
X60.07Y-155.206
X60.07Y-160.206
X62.41Y-85.706
X62.57Y-71.206
X62.57Y-81.366
X63.57Y-155.206
X63.57Y-165.366
X64.07Y-111.206
X64.07Y-121.366
X64.07Y-124.706
X64.07Y-130.046
X64.07Y-140.206
X64.07Y-147.206
X64.07Y-152.206
X65.07Y-43.206
X65.07Y-48.206
X66.57Y-60.046
X66.57Y-70.206
X67.545Y-73.281
X67.545Y-78.281
X67.57Y-160.206
X67.57Y-165.206
X67.91Y-173.206
X68.07Y-111.206
X68.07Y-116.206
X69.07Y-124.706
X70.07Y-151.706
X70.07Y-156.706
X71.26Y-70.896
X71.26Y-73.436
X71.26Y-75.976
X71.26Y-78.516
X72.41Y-121.206
X72.57Y-85.706
X73.49Y-110.206
X73.49Y-117.826
X73.57Y-93.126
X73.57Y-103.286
X73.57Y-126.706
X74.07Y-148.206
X74.07Y-158.366
X75.07Y-130.891
X75.07Y-138.511
X75.57Y-83.706
X76.03Y-110.206
X76.03Y-117.826
X77.57Y-83.706
X77.61Y-130.891
X77.61Y-138.511
X78.07Y-62.206
X78.07Y-67.206
X78.07Y-167.706
X78.07Y-169.706
X78.07Y-173.206
X78.41Y-106.706
X78.57Y-110.206
X78.57Y-117.826
X78.57Y-148.046
X78.57Y-158.206
X78.88Y-70.896
X78.88Y-73.436
X78.88Y-75.976
X78.88Y-78.516
X79.07Y-93.126
X79.07Y-103.286
X80.15Y-130.891
X80.15Y-138.511
X81.11Y-110.206
X81.11Y-117.826
X82.07Y-68.206
X82.07Y-73.206
X82.07Y-76.206
X82.07Y-81.206
X82.57Y-121.206
X82.69Y-130.891
X82.69Y-138.511
X83.07Y-148.546
X83.07Y-158.706
X83.65Y-110.206
X83.65Y-117.826
X83.73Y-126.706
X84.07Y-93.126
X84.07Y-103.286
X84.76Y-71.396
X84.76Y-73.936
X84.76Y-76.476
X84.76Y-79.016
X86.19Y-110.206
X86.19Y-117.826
X86.99Y-122.656
X86.99Y-126.706
X87.07Y-83.206
X87.07Y-85.206
X87.57Y-152.206
X87.57Y-157.206
X88.07Y-132.706
X88.07Y-137.706
X88.57Y-106.706
X88.57Y-160.206
X88.57Y-165.206
X88.73Y-110.206
X88.73Y-117.826
X89.07Y-93.286
X89.07Y-103.446
X92.38Y-71.396
X92.38Y-73.936
X92.38Y-76.476
X92.38Y-79.016
X92.57Y-62.206
X92.57Y-67.206
X92.57Y-147.206
X92.57Y-152.206
X92.57Y-155.206
X92.57Y-165.366
X94.57Y-112.706
X94.57Y-117.706
X95.07Y-71.706
X95.07Y-76.706
X97.07Y-171.206
X97.15Y-122.656
X97.15Y-126.706
X97.57Y-153.206
X97.57Y-155.206
X98.07Y-139.706
X98.07Y-149.866
X99.57Y-70.546
X99.57Y-80.706
X99.68Y-158.391
X99.68Y-166.011
X100.07Y-42.206
X100.41Y-115.206
X100.41Y-118.706
X100.57Y-52.206
X101.07Y-122.656
X101.07Y-127.656
X101.435Y-58.206
X102.22Y-158.391
X102.22Y-166.011
X102.57Y-155.206
X103.07Y-132.926
X103.07Y-135.466
X103.07Y-138.006
X103.07Y-140.546
X103.07Y-143.086
X103.07Y-145.626
X103.07Y-148.166
X103.07Y-150.706
X103.435Y-58.206
X103.57Y-71.706
X103.57Y-81.866
X104.76Y-158.391
X104.76Y-166.011
X105.07Y-42.206
X105.57Y-52.206
X106.07Y-122.656
X106.07Y-127.656
X107.23Y-171.206
X107.3Y-158.391
X107.3Y-166.011
X107.57Y-155.206
X109.07Y-51.706
X109.07Y-105.706
X109.07Y-110.706
X109.57Y-174.206
X109.84Y-158.391
X109.84Y-166.011
X110.07Y-170.206
X110.57Y-115.206
X110.57Y-118.706
X110.57Y-126.206
X110.69Y-132.926
X110.69Y-135.466
X110.69Y-138.006
X110.69Y-140.546
X110.69Y-143.086
X110.69Y-145.626
X110.69Y-148.166
X110.69Y-150.706
X112.07Y-40.086
X112.07Y-47.706
X112.38Y-158.391
X112.38Y-166.011
X112.525Y-74.706
X112.57Y-126.206
X112.82Y-35.956
X114.07Y-51.706
X114.07Y-80.206
X114.07Y-85.206
X114.525Y-74.706
X114.61Y-40.086
X114.61Y-47.706
X114.615Y-143.206
X114.92Y-158.391
X114.92Y-166.011
X115.57Y-132.206
X115.57Y-137.206
X116.615Y-143.206
X117.15Y-40.086
X117.15Y-47.706
X117.46Y-158.391
X117.46Y-166.011
X117.82Y-35.956
X118.07Y-52.206
X119.69Y-40.086
X119.69Y-47.706
X119.73Y-174.206
X120.07Y-52.206
X120.07Y-63.161
X120.07Y-65.161
X120.23Y-170.206
X122.99Y-174.206
X123.41Y-164.206
X123.49Y-169.206
X124.07Y-33.706
X124.07Y-36.206
X124.07Y-56.206
X124.07Y-61.206
X125.07Y-41.626
X125.07Y-51.786
X126.07Y-64.706
X133.15Y-174.206
X133.57Y-164.206
X133.65Y-169.206
X136.23Y-64.706
T6
X44.07Y-33.206
X44.07Y-45.906
X45.57Y-116.206
X46.61Y-33.206
X46.61Y-45.906
X47.07Y-167.706
X47.07Y-175.206
X48.07Y-71.706
X48.07Y-79.206
X49.15Y-33.206
X49.15Y-45.906
X49.57Y-125.206
X51.69Y-33.206
X51.69Y-45.906
X54.23Y-33.206
X54.23Y-45.906
X139.53Y-151.606
X139.53Y-154.146
X139.53Y-156.686
X139.53Y-159.226
X142.07Y-150.336
X142.07Y-152.876
X142.07Y-155.416
X142.07Y-157.956
T7
X37.57Y-143.206
X42.57Y-143.206
X46.07Y-99.706
X51.07Y-99.706
X59.57Y-100.206
X60.07Y-145.206
X69.57Y-128.706
X73.49Y-143.206
X74.57Y-106.706
X75.14Y-33.506
X75.14Y-46.206
X76.03Y-143.206
X77.68Y-33.506
X77.68Y-46.206
X78.57Y-52.706
X78.57Y-143.206
X80.22Y-33.506
X80.22Y-46.206
X81.11Y-143.206
X82.57Y-52.706
X82.57Y-63.706
X82.76Y-33.506
X82.76Y-46.206
X83.65Y-143.206
X85.3Y-33.506
X85.3Y-46.206
X85.57Y-169.706
X86.57Y-52.706
X87.84Y-33.506
X87.84Y-46.206
X88.07Y-63.706
X90.07Y-169.706
X93.57Y-107.206
X95.07Y-98.706
X96.07Y-66.706
X97.57Y-31.706
X100.11Y-31.706
X102.07Y-66.706
X102.65Y-31.706
X103.57Y-107.206
X105.19Y-31.706
X106.57Y-36.206
X107.73Y-31.706
X109.11Y-36.206
X112.57Y-31.706
X114.82Y-112.456
X115.11Y-31.706
X120.57Y-74.166
X120.57Y-76.706
X120.57Y-79.246
X120.57Y-81.786
X120.57Y-84.326
X120.57Y-86.866
X120.57Y-89.406
X120.57Y-91.946
X120.57Y-94.486
X120.57Y-97.026
X120.57Y-99.566
X120.57Y-102.106
X125.57Y-145.706
X133.27Y-74.166
X133.27Y-76.706
X133.27Y-79.246
X133.27Y-81.786
X133.27Y-84.326
X133.27Y-86.866
X133.27Y-89.406
X133.27Y-91.946
X133.27Y-94.486
X133.27Y-97.026
X133.27Y-99.566
X133.27Y-102.106
X139.07Y-167.166
X139.07Y-169.706
X139.07Y-172.246
X139.57Y-81.706
X139.57Y-86.706
X139.57Y-91.706
X139.57Y-97.706
X139.57Y-115.666
X139.57Y-118.206
X139.57Y-123.666
X139.57Y-126.206
X139.57Y-131.666
X139.57Y-134.206
T8
X100.03Y-46.756
X102.57Y-46.756
X105.11Y-46.756
T9
X152.82Y-147.356
X152.82Y-162.206
T10
X139.57Y-43.706
T11
X137.97Y-38.556
X137.97Y-48.856
T12
X38.99Y-33.206
X38.99Y-45.906
X59.31Y-33.206
X59.31Y-45.906
X71.33Y-33.506
X71.33Y-46.206
X91.65Y-33.506
X91.65Y-46.206
X120.57Y-70.356
X120.57Y-105.916
X133.27Y-70.356
X133.27Y-105.916
T13
X146.03Y-149.781
X146.03Y-159.781
T14
X30.07Y-23.706
X30.07Y-183.706
X150.07Y-23.706
X150.07Y-183.706
M30
